<svg xmlns="http://www.w3.org/2000/svg" xmlns:xlink="http://www.w3.org/1999/xlink" width="192" height="192" viewBox="0 0 192 192"><defs><linearGradient id="a" x1="0.5" x2="0.5" y2="1" gradientUnits="objectBoundingBox"><stop offset="0" stop-color="#9e9234"/><stop offset="0" stop-color="#544e1c"/><stop offset="0.201" stop-color="#93840f"/><stop offset="0.563" stop-color="#746914"/><stop offset="0.764" stop-color="#585119"/><stop offset="0.979" stop-color="#7b6f13"/><stop offset="1" stop-color="#4f491a"/></linearGradient><linearGradient id="b" x1="0.5" x2="0.5" y2="1" gradientUnits="objectBoundingBox"><stop offset="0" stop-color="#d6bb00"/><stop offset="0" stop-color="#6d6000" stop-opacity="0.871"/><stop offset="0.257" stop-color="#d0b600"/><stop offset="0.318" stop-color="#bda600"/><stop offset="0.508" stop-color="#756700" stop-opacity="0.722"/><stop offset="0.757" stop-color="#cab100"/><stop offset="0.906" stop-color="#6f6200" stop-opacity="0.78"/><stop offset="1" stop-color="#6b5e00"/></linearGradient><filter id="c" x="19.067" y="65" width="129.543" height="34.811" filterUnits="userSpaceOnUse"><feOffset dx="2" input="SourceAlpha"/><feGaussianBlur stdDeviation="2.5" result="d"/><feFlood flood-color="#fff" flood-opacity="0.961"/><feComposite operator="in" in2="d"/><feComposite in="SourceGraphic"/></filter><radialGradient id="e" cx="0.499" cy="0.501" r="0.232" gradientTransform="matrix(0.91, 0.574, -2.019, 2.591, 1.055, -1.083)" gradientUnits="objectBoundingBox"><stop offset="0" stop-color="#fff6ea"/><stop offset="0.444" stop-color="#edda3f" stop-opacity="0.11"/><stop offset="1" stop-opacity="0"/></radialGradient></defs><g transform="translate(-82 -278)"><path d="M0,0H192V192H0Z" transform="translate(82 278)" fill="none" opacity="0.92"/><path d="M0,0C27.952-.006,93.715,0,93.715,0a2.671,2.671,0,0,1,1.831,2.572c2.844-.1,10.761-.012,15.908,0A2.453,2.453,0,0,1,113.143,0H128V64H114.5s-2.9-.028-3.013-2.594c-3.345.082-13.776-.05-15.958,0C95.546,63.854,94,64,94,64s-63.874.267-94,0C-52.818,51.1-47.926,10.6,0,0Z" transform="translate(132.614 342.003)" stroke="rgba(101,101,101,0.29)" stroke-linecap="round" stroke-width="1" fill="url(#a)"/><path d="M0,0H17V60H0Z" transform="translate(227.614 344.003)" fill="url(#b)"/><g transform="matrix(1, 0, 0, 1, 82, 278)" filter="url(#c)"><path d="M86,0H1.9C-11.619,0-15.63,9.556-21.473,12.741" transform="translate(50.11 75.5)" fill="none" stroke="#fee359" stroke-linecap="round" stroke-width="6" stroke-dasharray="16 24"/></g><ellipse cx="13.5" cy="15" rx="13.5" ry="15" transform="translate(98.724 346.703) rotate(11)" fill="url(#e)"/></g></svg>