<svg xmlns="http://www.w3.org/2000/svg" xmlns:xlink="http://www.w3.org/1999/xlink" width="64" height="64" viewBox="0 0 64 64"><defs><linearGradient id="a" x1="0.5" x2="0.5" y2="1" gradientUnits="objectBoundingBox"><stop offset="0" stop-color="#9e9234"/><stop offset="0" stop-color="#544e1c"/><stop offset="0.201" stop-color="#93840f"/><stop offset="0.563" stop-color="#746914"/><stop offset="0.764" stop-color="#585119"/><stop offset="0.979" stop-color="#7b6f13"/><stop offset="1" stop-color="#4f491a"/></linearGradient><linearGradient id="b" x1="0.5" x2="0.5" y2="1" gradientUnits="objectBoundingBox"><stop offset="0" stop-color="#d6bb00"/><stop offset="0" stop-color="#6d6000" stop-opacity="0.871"/><stop offset="0.257" stop-color="#d0b600"/><stop offset="0.318" stop-color="#bda600"/><stop offset="0.508" stop-color="#756700" stop-opacity="0.722"/><stop offset="0.757" stop-color="#cab100"/><stop offset="0.906" stop-color="#6f6200" stop-opacity="0.78"/><stop offset="1" stop-color="#6b5e00"/></linearGradient><filter id="c" x="2.011" y="16.167" width="54.359" height="22.782" filterUnits="userSpaceOnUse"><feOffset dx="2" input="SourceAlpha"/><feGaussianBlur stdDeviation="2.5" result="d"/><feFlood flood-color="#fff" flood-opacity="0.961"/><feComposite operator="in" in2="d"/><feComposite in="SourceGraphic"/></filter><radialGradient id="e" cx="0.499" cy="0.501" r="0.232" gradientTransform="matrix(0.91, 0.574, -2.019, 2.591, 1.055, -1.083)" gradientUnits="objectBoundingBox"><stop offset="0" stop-color="#fff6ea"/><stop offset="0.444" stop-color="#edda3f" stop-opacity="0.11"/><stop offset="1" stop-opacity="0"/></radialGradient></defs><g transform="translate(-82 -278)"><path d="M0,0H64V64H0Z" transform="translate(82 278)" fill="none" opacity="0.92"/><path d="M-25.2,0C-15.883,0,6.038,0,6.038,0a.89.89,0,0,1,.61.857c.948-.033,3.587,0,5.3,0A.818.818,0,0,1,12.514,0h4.952V21.332h-4.5s-.967-.009-1-.865c-1.115.027-4.592-.017-5.319,0,.006.816-.51.865-.51.865s-21.291.089-31.333,0C-42.807,17.032-41.176,3.532-25.2,0Z" transform="translate(124.072 299.336)" stroke="rgba(101,101,101,0.29)" stroke-linecap="round" stroke-width="1" fill="url(#a)"/><path d="M0,0H5.667V20H0Z" transform="translate(130.538 300.001)" fill="url(#b)"/><g transform="matrix(1, 0, 0, 1, 82, 278)" filter="url(#c)"><path d="M14.351,0H-13.682c-4.506,0-5.843,3.185-7.791,4.247" transform="translate(31.02 25.17)" fill="none" stroke="#fee359" stroke-linecap="round" stroke-width="3" stroke-dasharray="18 20"/></g><ellipse cx="4.5" cy="5" rx="4.5" ry="5" transform="translate(87.575 300.901) rotate(11)" fill="url(#e)"/></g></svg>