<svg xmlns="http://www.w3.org/2000/svg" xmlns:xlink="http://www.w3.org/1999/xlink" width="34.09" height="32" viewBox="0 0 34.09 32"><defs><linearGradient id="a" x1="0.5" x2="0.5" y2="1" gradientUnits="objectBoundingBox"><stop offset="0" stop-color="#9e9234"/><stop offset="0" stop-color="#544e1c"/><stop offset="0.201" stop-color="#93840f"/><stop offset="0.563" stop-color="#746914"/><stop offset="0.764" stop-color="#585119"/><stop offset="0.979" stop-color="#7b6f13"/><stop offset="1" stop-color="#4f491a"/></linearGradient><linearGradient id="b" x1="0.5" x2="0.5" y2="1" gradientUnits="objectBoundingBox"><stop offset="0" stop-color="#d6bb00"/><stop offset="0" stop-color="#6d6000" stop-opacity="0.871"/><stop offset="0.257" stop-color="#d0b600"/><stop offset="0.318" stop-color="#bda600"/><stop offset="0.508" stop-color="#756700" stop-opacity="0.722"/><stop offset="0.757" stop-color="#cab100"/><stop offset="0.906" stop-color="#6f6200" stop-opacity="0.78"/><stop offset="1" stop-color="#6b5e00"/></linearGradient><filter id="c" x="0" y="4.583" width="34.09" height="18.302" filterUnits="userSpaceOnUse"><feOffset dx="2" input="SourceAlpha"/><feGaussianBlur stdDeviation="2.5" result="d"/><feFlood flood-color="#fff" flood-opacity="0.961"/><feComposite operator="in" in2="d"/><feComposite in="SourceGraphic"/></filter><radialGradient id="e" cx="0.499" cy="0.501" r="0.232" gradientTransform="matrix(0.91, 0.574, -2.019, 2.591, 1.055, -1.083)" gradientUnits="objectBoundingBox"><stop offset="0" stop-color="#fff6ea"/><stop offset="0.444" stop-color="#edda3f" stop-opacity="0.11"/><stop offset="1" stop-opacity="0"/></radialGradient></defs><g transform="translate(-80.595 -278)"><path d="M0,0H32V32H0Z" transform="translate(82 278)" fill="none" opacity="0.92"/><path d="M-31.5,0h15.619a.445.445,0,0,1,.305.429c.474-.017,1.794,0,2.651,0A.409.409,0,0,1-12.644,0h2.476V10.664h-2.25s-.483,0-.5-.432c-.558.014-2.3-.008-2.66,0,0,.408-.255.432-.255.432s-10.646.044-15.667,0C-40.3,8.514-39.489,1.764-31.5,0Z" transform="translate(121.937 288.669)" stroke="rgba(101,101,101,0.29)" stroke-linecap="round" stroke-width="1" fill="url(#a)"/><path d="M0,0H2.833V10H0Z" transform="translate(106.269 289)" fill="url(#b)"/><g transform="matrix(1, 0, 0, 1, 80.59, 278)" filter="url(#c)"><path d="M-3.561,0H-17.577c-2.253,0-2.922,1.593-3.9,2.124" transform="translate(27.65 12.58)" fill="none" stroke="#fee359" stroke-linecap="round" stroke-width="1" stroke-dasharray="13 5"/></g><ellipse cx="2.25" cy="2.5" rx="2.25" ry="2.5" transform="translate(84.787 289.451) rotate(11)" fill="url(#e)"/></g></svg>