<svg xmlns="http://www.w3.org/2000/svg" xmlns:xlink="http://www.w3.org/1999/xlink" width="128" height="128" viewBox="0 0 128 128"><defs><linearGradient id="a" x1="0.5" x2="0.5" y2="1" gradientUnits="objectBoundingBox"><stop offset="0" stop-color="#9e9234"/><stop offset="0" stop-color="#544e1c"/><stop offset="0.201" stop-color="#93840f"/><stop offset="0.563" stop-color="#746914"/><stop offset="0.764" stop-color="#585119"/><stop offset="0.979" stop-color="#7b6f13"/><stop offset="1" stop-color="#4f491a"/></linearGradient><linearGradient id="b" x1="0.5" x2="0.5" y2="1" gradientUnits="objectBoundingBox"><stop offset="0" stop-color="#d6bb00"/><stop offset="0" stop-color="#6d6000" stop-opacity="0.871"/><stop offset="0.257" stop-color="#d0b600"/><stop offset="0.318" stop-color="#bda600"/><stop offset="0.508" stop-color="#756700" stop-opacity="0.722"/><stop offset="0.757" stop-color="#cab100"/><stop offset="0.906" stop-color="#6f6200" stop-opacity="0.78"/><stop offset="1" stop-color="#6b5e00"/></linearGradient><filter id="c" x="9.521" y="39.833" width="93.719" height="30.564" filterUnits="userSpaceOnUse"><feOffset dx="2" input="SourceAlpha"/><feGaussianBlur stdDeviation="2.5" result="d"/><feFlood flood-color="#fff" flood-opacity="0.961"/><feComposite operator="in" in2="d"/><feComposite in="SourceGraphic"/></filter><radialGradient id="e" cx="0.499" cy="0.501" r="0.232" gradientTransform="matrix(0.91, 0.574, -2.019, 2.591, 1.055, -1.083)" gradientUnits="objectBoundingBox"><stop offset="0" stop-color="#fff6ea"/><stop offset="0.444" stop-color="#edda3f" stop-opacity="0.11"/><stop offset="1" stop-opacity="0"/></radialGradient></defs><g transform="translate(-82 -278)"><path d="M0,0H128V128H0Z" transform="translate(82 278)" fill="none" opacity="0.92"/><path d="M-12.6,0C6.034,0,49.876,0,49.876,0A1.781,1.781,0,0,1,51.1,1.714c1.9-.067,7.174-.008,10.605,0A1.635,1.635,0,0,1,62.828,0h9.9V42.666h-9s-1.933-.019-2.009-1.729c-2.23.055-9.184-.033-10.639,0,.011,1.632-1.019,1.729-1.019,1.729s-42.583.178-62.667,0C-47.812,34.066-44.551,7.066-12.6,0Z" transform="translate(128.343 320.67)" stroke="rgba(101,101,101,0.29)" stroke-linecap="round" stroke-width="1" fill="url(#a)"/><path d="M0,0H11.333V40H0Z" transform="translate(179.076 322.002)" fill="url(#b)"/><g transform="matrix(1, 0, 0, 1, 82, 278)" filter="url(#c)"><path d="M50.176,0H-5.891C-14.9,0-17.578,6.371-21.473,8.494" transform="translate(40.56 50.33)" fill="none" stroke="#fee359" stroke-linecap="round" stroke-width="6" stroke-dasharray="16 24"/></g><ellipse cx="9" cy="10" rx="9" ry="10" transform="translate(93.149 323.802) rotate(11)" fill="url(#e)"/></g></svg>